<svg width="220" height="57" viewBox="0 0 220 57" fill="none" xmlns="http://www.w3.org/2000/svg">
<path d="M16.2 16.72C15.08 16.72 14.24 16.4667 13.68 15.96C13.12 15.4267 12.84 14.6933 12.84 13.76C12.84 12.8267 13.2 12.0533 13.92 11.44C14.6667 10.8 15.5867 10.48 16.68 10.48C17.6667 10.48 18.4667 10.72 19.08 11.2C19.6933 11.68 20 12.36 20 13.24C20 14.3067 19.6533 15.16 18.96 15.8C18.2667 16.4133 17.3467 16.72 16.2 16.72ZM23.4 29.16C23.7467 29.16 24.0133 29.3333 24.2 29.68C24.4133 30 24.52 30.4133 24.52 30.92C24.52 31.5333 24.4267 32.0133 24.24 32.36C24.0533 32.7067 23.76 33.0133 23.36 33.28C21.4933 34.5067 19 36.2 15.88 38.36C14.84 43.9067 13.4933 48.2667 11.84 51.44C10.1867 54.6133 8.08 56.2 5.52 56.2C4.13333 56.2 3.02667 55.7733 2.2 54.92C1.34667 54.0933 0.919999 53 0.919999 51.64C0.919999 49.7467 1.65333 47.72 3.12 45.56C4.58667 43.4267 7.34667 40.7867 11.4 37.64L11.68 35.6C12.0533 33.04 12.3467 30.52 12.56 28.04C12.72 26.6 12.9733 24.4533 13.32 21.6C13.4267 20.8267 13.72 20.2667 14.2 19.92C14.68 19.5467 15.4133 19.36 16.4 19.36C17.2 19.36 17.72 19.48 17.96 19.72C18.2267 19.96 18.36 20.2933 18.36 20.72C18.36 21.9467 17.92 25.3333 17.04 30.88L16.64 33.64C18.7733 32.04 20.72 30.6533 22.48 29.48C22.8267 29.2667 23.1333 29.16 23.4 29.16ZM5.96 52.32C6.65333 52.32 7.41333 51.5333 8.24 49.96C9.06667 48.3867 9.84 45.8533 10.56 42.36C8.53333 44.0933 7.08 45.6533 6.2 47.04C5.29333 48.4533 4.84 49.6933 4.84 50.76C4.84 51.8 5.21333 52.32 5.96 52.32ZM26.6056 38.2C24.9523 38.2 23.6323 37.6 22.6456 36.4C21.659 35.2 21.1656 33.6267 21.1656 31.68C21.1656 29.5467 21.659 27.5333 22.6456 25.64C23.6323 23.72 24.939 22.1867 26.5656 21.04C28.219 19.8667 29.9656 19.28 31.8056 19.28C32.3923 19.28 32.779 19.4 32.9656 19.64C33.179 19.8533 33.3523 20.2533 33.4856 20.84C34.0456 20.7333 34.6323 20.68 35.2456 20.68C36.5523 20.68 37.2056 21.1467 37.2056 22.08C37.2056 22.64 37.0056 23.9733 36.6056 26.08C35.9923 29.1467 35.6856 31.28 35.6856 32.48C35.6856 32.88 35.779 33.2 35.9656 33.44C36.179 33.68 36.4456 33.8 36.7656 33.8C37.2723 33.8 37.8856 33.48 38.6056 32.84C39.3256 32.1733 40.299 31.1067 41.5256 29.64C41.8456 29.2667 42.2056 29.08 42.6056 29.08C42.9523 29.08 43.219 29.24 43.4056 29.56C43.619 29.88 43.7256 30.32 43.7256 30.88C43.7256 31.9467 43.4723 32.7733 42.9656 33.36C41.8723 34.72 40.7123 35.8667 39.4856 36.8C38.259 37.7333 37.0723 38.2 35.9256 38.2C35.0456 38.2 34.2323 37.9067 33.4856 37.32C32.7656 36.7067 32.219 35.88 31.8456 34.84C30.459 37.08 28.7123 38.2 26.6056 38.2ZM28.0456 34.16C28.6323 34.16 29.1923 33.8133 29.7256 33.12C30.259 32.4267 30.6456 31.5067 30.8856 30.36L32.3656 23C31.2456 23.0267 30.2056 23.4533 29.2456 24.28C28.3123 25.08 27.5656 26.1467 27.0056 27.48C26.4456 28.8133 26.1656 30.2267 26.1656 31.72C26.1656 32.5467 26.3256 33.16 26.6456 33.56C26.9923 33.96 27.459 34.16 28.0456 34.16ZM43.3147 38.2C42.3014 38.2 41.5814 37.6667 41.1547 36.6C40.7547 35.5333 40.5547 33.8267 40.5547 31.48C40.5547 28.0133 41.048 24.72 42.0347 21.6C42.2747 20.8267 42.6614 20.2667 43.1947 19.92C43.7547 19.5467 44.528 19.36 45.5147 19.36C46.048 19.36 46.4214 19.4267 46.6347 19.56C46.848 19.6933 46.9547 19.9467 46.9547 20.32C46.9547 20.7467 46.7547 21.7067 46.3547 23.2C46.088 24.2667 45.8747 25.2 45.7147 26C45.5547 26.7733 45.4214 27.7467 45.3147 28.92C46.0347 26.84 46.888 25.08 47.8747 23.64C48.888 22.2 49.9147 21.1333 50.9547 20.44C52.0214 19.72 53.0214 19.36 53.9547 19.36C54.888 19.36 55.5414 19.5733 55.9147 20C56.3147 20.4267 56.5147 21.08 56.5147 21.96C56.5147 22.8133 56.2614 24.36 55.7547 26.6C55.5414 27.56 55.3947 28.28 55.3147 28.76C56.648 25.48 58.128 23.0933 59.7547 21.6C61.3814 20.1067 62.9014 19.36 64.3147 19.36C66.048 19.36 66.9147 20.2267 66.9147 21.96C66.9147 23 66.6214 24.88 66.0347 27.6C65.528 29.92 65.2747 31.4533 65.2747 32.2C65.2747 33.2667 65.6614 33.8 66.4347 33.8C66.968 33.8 67.5947 33.48 68.3147 32.84C69.0614 32.1733 70.048 31.1067 71.2747 29.64C71.5947 29.2667 71.9547 29.08 72.3547 29.08C72.7014 29.08 72.968 29.24 73.1547 29.56C73.368 29.88 73.4747 30.32 73.4747 30.88C73.4747 31.9467 73.2214 32.7733 72.7147 33.36C71.568 34.7733 70.328 35.9333 68.9947 36.84C67.688 37.7467 66.1947 38.2 64.5147 38.2C63.1547 38.2 62.128 37.8133 61.4347 37.04C60.7414 36.24 60.3947 35.0933 60.3947 33.6C60.3947 32.8533 60.5814 31.52 60.9547 29.6C61.3014 27.92 61.4747 26.76 61.4747 26.12C61.4747 25.6933 61.328 25.48 61.0347 25.48C60.688 25.48 60.1947 25.9333 59.5547 26.84C58.9147 27.72 58.2747 28.8933 57.6347 30.36C56.9947 31.8267 56.4747 33.3733 56.0747 35C55.7814 36.28 55.4347 37.1333 55.0347 37.56C54.6614 37.9867 54.048 38.2 53.1947 38.2C52.3147 38.2 51.648 37.7867 51.1947 36.96C50.768 36.1067 50.5547 35.08 50.5547 33.88C50.5547 32.8667 50.688 31.4 50.9547 29.48C51.168 27.7733 51.2747 26.6533 51.2747 26.12C51.2747 25.6933 51.128 25.48 50.8347 25.48C50.4347 25.48 49.928 25.96 49.3147 26.92C48.7014 27.88 48.1014 29.1067 47.5147 30.6C46.9547 32.0933 46.5014 33.56 46.1547 35C45.8614 36.2533 45.5147 37.1067 45.1147 37.56C44.7414 37.9867 44.1414 38.2 43.3147 38.2ZM91.5203 25.72C91.867 25.72 92.1336 25.8933 92.3203 26.24C92.507 26.5867 92.6003 27.0267 92.6003 27.56C92.6003 28.2267 92.507 28.7467 92.3203 29.12C92.1336 29.4667 91.8403 29.7067 91.4403 29.84C89.8403 30.4 88.0803 30.72 86.1603 30.8C85.627 33.0133 84.6136 34.8 83.1203 36.16C81.6536 37.52 80.027 38.2 78.2403 38.2C75.547 38.2 73.587 37.1733 72.3603 35.12C71.1336 33.0667 70.5203 30.0933 70.5203 26.2C70.5203 22.76 70.947 19.0267 71.8003 15C72.6536 10.9467 73.8936 7.50666 75.5203 4.68C77.1736 1.82666 79.1336 0.399998 81.4003 0.399998C82.627 0.399998 83.6136 0.933331 84.3603 2C85.107 3.04 85.4803 4.4 85.4803 6.08C85.4803 8.26667 85.067 10.44 84.2403 12.6C83.4136 14.76 82.0403 17.0267 80.1203 19.4C81.907 19.5333 83.3603 20.28 84.4803 21.64C85.6003 22.9733 86.267 24.6267 86.4803 26.6C87.7336 26.52 89.227 26.2533 90.9603 25.8C91.1203 25.7467 91.307 25.72 91.5203 25.72ZM80.4803 4.36C79.947 4.36 79.3603 5.16 78.7203 6.76C78.107 8.33333 77.5336 10.48 77.0003 13.2C76.467 15.92 76.067 18.8933 75.8003 22.12C77.5603 18.8933 78.9603 16.0533 80.0003 13.6C81.067 11.12 81.6003 8.92 81.6003 7C81.6003 6.14667 81.4936 5.49333 81.2803 5.04C81.0936 4.58667 80.827 4.36 80.4803 4.36ZM78.4003 33.96C79.227 33.96 79.9603 33.6133 80.6003 32.92C81.2403 32.2267 81.667 31.2267 81.8803 29.92C81.0536 29.36 80.4136 28.6267 79.9603 27.72C79.5336 26.8133 79.3203 25.8533 79.3203 24.84C79.3203 24.4667 79.3736 23.96 79.4803 23.32H79.3603C78.267 23.32 77.347 23.8667 76.6003 24.96C75.8803 26.0267 75.5203 27.4667 75.5203 29.28C75.5203 30.8 75.8003 31.96 76.3603 32.76C76.947 33.56 77.627 33.96 78.4003 33.96ZM95.9066 38.2C94.3332 38.2 92.9866 37.8133 91.8666 37.04C90.7732 36.24 89.9466 35.2 89.3866 33.92C88.8266 32.64 88.5466 31.2667 88.5466 29.8C88.5466 27.7733 88.9199 25.9733 89.6666 24.4C90.4399 22.8 91.4799 21.56 92.7866 20.68C94.0932 19.7733 95.5599 19.32 97.1866 19.32C98.7599 19.32 100.107 19.72 101.227 20.52C102.347 21.2933 103.187 22.32 103.747 23.6C104.307 24.88 104.587 26.2533 104.587 27.72C104.587 29.7467 104.2 31.56 103.427 33.16C102.653 34.7333 101.6 35.9733 100.267 36.88C98.9599 37.76 97.5066 38.2 95.9066 38.2ZM96.3466 33.88C97.2532 33.88 98.0132 33.3867 98.6266 32.4C99.2666 31.4133 99.5866 29.9733 99.5866 28.08C99.5866 26.6133 99.3199 25.5067 98.7866 24.76C98.2532 24.0133 97.6132 23.64 96.8666 23.64C95.9066 23.64 95.1066 24.1333 94.4666 25.12C93.8532 26.08 93.5466 27.52 93.5466 29.44C93.5466 30.96 93.8132 32.08 94.3466 32.8C94.8799 33.52 95.5466 33.88 96.3466 33.88Z" fill="black"/>
<path d="M135.698 29.08C136.044 29.08 136.311 29.24 136.497 29.56C136.711 29.88 136.818 30.32 136.818 30.88C136.818 31.9467 136.564 32.7733 136.058 33.36C134.911 34.7733 133.658 35.9333 132.298 36.84C130.938 37.7467 129.378 38.2 127.618 38.2C122.178 38.2 119.458 34.3733 119.458 26.72C119.458 25.5467 119.498 24.36 119.578 23.16H118.018C117.218 23.16 116.671 23.0133 116.378 22.72C116.111 22.4267 115.978 21.96 115.978 21.32C115.978 19.8267 116.578 19.08 117.778 19.08H120.058C120.511 16.1467 121.204 13.4667 122.138 11.04C123.071 8.61333 124.191 6.68 125.498 5.24C126.831 3.8 128.258 3.08 129.778 3.08C130.898 3.08 131.778 3.57333 132.418 4.56C133.058 5.54667 133.378 6.78667 133.378 8.28C133.378 12.4133 131.644 16.0133 128.178 19.08H132.658C133.084 19.08 133.391 19.1733 133.578 19.36C133.764 19.5467 133.858 19.8933 133.858 20.4C133.858 22.24 132.351 23.16 129.338 23.16H124.458C124.404 24.4933 124.378 25.5333 124.378 26.28C124.378 29.0533 124.698 31 125.338 32.12C126.004 33.24 127.044 33.8 128.458 33.8C129.604 33.8 130.618 33.4533 131.498 32.76C132.378 32.0667 133.418 31.0267 134.618 29.64C134.938 29.2667 135.298 29.08 135.698 29.08ZM128.698 6.92C128.298 6.92 127.844 7.42667 127.338 8.44C126.858 9.42667 126.391 10.8133 125.938 12.6C125.511 14.36 125.151 16.32 124.858 18.48C126.431 17.12 127.604 15.6 128.378 13.92C129.178 12.2133 129.578 10.6667 129.578 9.28C129.578 7.70667 129.284 6.92 128.698 6.92ZM136.401 38.2C135.387 38.2 134.667 37.6667 134.241 36.6C133.841 35.5333 133.641 33.8267 133.641 31.48C133.641 28.0133 134.134 24.72 135.121 21.6C135.361 20.8267 135.747 20.2667 136.281 19.92C136.841 19.5467 137.614 19.36 138.601 19.36C139.134 19.36 139.507 19.4267 139.721 19.56C139.934 19.6933 140.041 19.9467 140.041 20.32C140.041 20.7467 139.841 21.7067 139.441 23.2C139.174 24.2667 138.961 25.2 138.801 26C138.641 26.8 138.507 27.7867 138.401 28.96C139.281 26.6667 140.267 24.8 141.361 23.36C142.454 21.92 143.521 20.8933 144.561 20.28C145.627 19.6667 146.601 19.36 147.481 19.36C149.214 19.36 150.081 20.2267 150.081 21.96C150.081 22.3067 149.961 23.1467 149.721 24.48C149.507 25.5467 149.401 26.2133 149.401 26.48C149.401 27.4133 149.734 27.88 150.401 27.88C151.147 27.88 152.107 27.2933 153.281 26.12C153.627 25.7733 153.987 25.6 154.361 25.6C154.707 25.6 154.974 25.76 155.161 26.08C155.374 26.3733 155.481 26.7733 155.481 27.28C155.481 28.2667 155.214 29.04 154.681 29.6C153.934 30.3733 153.054 31.04 152.041 31.6C151.054 32.1333 150.001 32.4 148.881 32.4C147.467 32.4 146.387 32.04 145.641 31.32C144.921 30.6 144.561 29.6267 144.561 28.4C144.561 28 144.601 27.6 144.681 27.2C144.734 26.6667 144.761 26.3067 144.761 26.12C144.761 25.6933 144.614 25.48 144.321 25.48C143.921 25.48 143.387 25.9333 142.721 26.84C142.081 27.72 141.441 28.8933 140.801 30.36C140.161 31.8267 139.641 33.3733 139.241 35C138.947 36.2533 138.601 37.1067 138.201 37.56C137.827 37.9867 137.227 38.2 136.401 38.2ZM156.684 38.2C155.03 38.2 153.71 37.6 152.724 36.4C151.737 35.2 151.244 33.6267 151.244 31.68C151.244 29.5467 151.737 27.5333 152.724 25.64C153.71 23.72 155.017 22.1867 156.644 21.04C158.297 19.8667 160.044 19.28 161.884 19.28C162.47 19.28 162.857 19.4 163.044 19.64C163.257 19.8533 163.43 20.2533 163.564 20.84C164.124 20.7333 164.71 20.68 165.324 20.68C166.63 20.68 167.284 21.1467 167.284 22.08C167.284 22.64 167.084 23.9733 166.684 26.08C166.07 29.1467 165.764 31.28 165.764 32.48C165.764 32.88 165.857 33.2 166.044 33.44C166.257 33.68 166.524 33.8 166.844 33.8C167.35 33.8 167.964 33.48 168.684 32.84C169.404 32.1733 170.377 31.1067 171.604 29.64C171.924 29.2667 172.284 29.08 172.684 29.08C173.03 29.08 173.297 29.24 173.484 29.56C173.697 29.88 173.804 30.32 173.804 30.88C173.804 31.9467 173.55 32.7733 173.044 33.36C171.95 34.72 170.79 35.8667 169.564 36.8C168.337 37.7333 167.15 38.2 166.004 38.2C165.124 38.2 164.31 37.9067 163.564 37.32C162.844 36.7067 162.297 35.88 161.924 34.84C160.537 37.08 158.79 38.2 156.684 38.2ZM158.124 34.16C158.71 34.16 159.27 33.8133 159.804 33.12C160.337 32.4267 160.724 31.5067 160.964 30.36L162.444 23C161.324 23.0267 160.284 23.4533 159.324 24.28C158.39 25.08 157.644 26.1467 157.084 27.48C156.524 28.8133 156.244 30.2267 156.244 31.72C156.244 32.5467 156.404 33.16 156.724 33.56C157.07 33.96 157.537 34.16 158.124 34.16ZM190.743 25.84C190.823 25.8133 190.957 25.8 191.143 25.8C191.543 25.8 191.85 25.9333 192.063 26.2C192.277 26.4667 192.383 26.8267 192.383 27.28C192.383 28.1067 192.223 28.76 191.903 29.24C191.583 29.6933 191.103 30.0267 190.463 30.24C189.237 30.64 187.93 30.84 186.543 30.84C185.37 30.84 184.263 30.68 183.223 30.36C182.45 31.6133 181.597 32.9067 180.663 34.24C179.597 35.76 178.677 36.8 177.903 37.36C177.13 37.92 176.25 38.2 175.263 38.2C174.17 38.2 173.303 37.7733 172.663 36.92C172.05 36.0667 171.663 34.72 171.503 32.88C171.183 29.1467 171.023 25.88 171.023 23.08V21.68C171.05 20.8 171.29 20.1867 171.743 19.84C172.197 19.4933 172.877 19.32 173.783 19.32C174.477 19.32 174.983 19.48 175.303 19.8C175.65 20.0933 175.823 20.6 175.823 21.32C175.823 24.3867 176.01 28.3733 176.383 33.28C177.983 30.9067 179.183 29.0133 179.983 27.6C179.583 26.8267 179.383 25.9067 179.383 24.84C179.383 23.9333 179.583 23.0533 179.983 22.2C180.383 21.3467 180.93 20.6533 181.623 20.12C182.317 19.5867 183.103 19.32 183.983 19.32C184.757 19.32 185.383 19.6 185.863 20.16C186.343 20.6933 186.583 21.48 186.583 22.52C186.583 23.72 186.263 25.0933 185.623 26.64C186.637 26.5867 187.983 26.3867 189.663 26.04L190.743 25.84ZM206.752 29.08C207.099 29.08 207.366 29.24 207.552 29.56C207.766 29.88 207.872 30.32 207.872 30.88C207.872 31.9467 207.619 32.7733 207.112 33.36C206.126 34.56 204.726 35.6667 202.912 36.68C201.126 37.6933 199.206 38.2 197.152 38.2C194.352 38.2 192.179 37.44 190.632 35.92C189.086 34.4 188.312 32.32 188.312 29.68C188.312 27.84 188.699 26.1333 189.472 24.56C190.246 22.96 191.312 21.6933 192.672 20.76C194.059 19.8267 195.619 19.36 197.352 19.36C198.899 19.36 200.139 19.8267 201.072 20.76C202.006 21.6667 202.472 22.9067 202.472 24.48C202.472 26.32 201.806 27.9067 200.472 29.24C199.166 30.5467 196.939 31.5867 193.792 32.36C194.459 33.5867 195.726 34.2 197.592 34.2C198.792 34.2 200.152 33.7867 201.672 32.96C203.219 32.1067 204.552 31 205.672 29.64C205.992 29.2667 206.352 29.08 206.752 29.08ZM196.672 23.28C195.686 23.28 194.846 23.8533 194.152 25C193.486 26.1467 193.152 27.5333 193.152 29.16V29.24C194.726 28.8667 195.966 28.3067 196.872 27.56C197.779 26.8133 198.232 25.9467 198.232 24.96C198.232 24.4533 198.086 24.0533 197.792 23.76C197.526 23.44 197.152 23.28 196.672 23.28ZM216.175 32.36C216.469 32.0933 216.762 31.96 217.055 31.96C217.375 31.96 217.629 32.1467 217.815 32.52C218.029 32.8667 218.135 33.2933 218.135 33.8C218.135 34.92 217.735 35.8133 216.935 36.48C215.549 37.6267 213.975 38.2 212.215 38.2C209.682 38.2 207.829 37.1467 206.655 35.04C205.482 32.9067 204.895 30.1333 204.895 26.72C204.895 23.4667 205.309 19.76 206.135 15.6C206.989 11.44 208.229 7.86667 209.855 4.88C211.509 1.89333 213.469 0.399998 215.735 0.399998C217.015 0.399998 218.015 0.999998 218.735 2.2C219.482 3.37333 219.855 5.06667 219.855 7.28C219.855 10.4533 218.975 14.1333 217.215 18.32C215.482 22.5067 213.109 26.64 210.095 30.72C210.282 31.8133 210.615 32.6 211.095 33.08C211.575 33.56 212.229 33.8 213.055 33.8C213.509 33.8 214.015 33.6667 214.575 33.4C215.162 33.1333 215.695 32.7867 216.175 32.36ZM214.855 4.36C214.242 4.36 213.549 5.46667 212.775 7.68C212.002 9.89333 211.322 12.64 210.735 15.92C210.149 19.2 209.829 22.3467 209.775 25.36C211.669 22.24 213.175 19.12 214.295 16C215.415 12.8533 215.975 9.98666 215.975 7.4C215.975 5.37333 215.602 4.36 214.855 4.36Z" fill="url(#paint0_linear_6_95)"/>
<defs>
<linearGradient id="paint0_linear_6_95" x1="113.833" y1="20.8341" x2="218" y2="20.8341" gradientUnits="userSpaceOnUse">
<stop stop-color="#14B1C6"/>
<stop offset="0.515625" stop-color="#9BCF82"/>
<stop offset="1" stop-color="#5BBA47"/>
</linearGradient>
</defs>
</svg>
